<svg xmlns="http://www.w3.org/2000/svg" viewBox="0 0 752 423"><defs><style>.cls-1{fill:#2c2f33;}.cls-2{fill:#8bd2bd;}.cls-3{fill:#b9e4d7;}.cls-4{fill:#fff;}.cls-5{fill:none;}</style></defs><g id="BACKGROUND"><rect class="cls-1" width="752" height="423"/></g><g id="OBJECTS"><circle class="cls-2" cx="134.36" cy="177.75" r="100.87" transform="translate(-86.34 147.07) rotate(-45)"/><circle class="cls-3" cx="243.05" cy="182.98" r="58.78"/><path class="cls-3" d="M884.72,426.19A134.56,134.56,0,1,0,750.16,560.75,134.56,134.56,0,0,0,884.72,426.19Zm-209.08,0a74.53,74.53,0,1,1,74.52,74.52A74.52,74.52,0,0,1,675.64,426.19Z"/><circle class="cls-2" cx="670.12" cy="116.14" r="21.56" transform="translate(114.15 507.86) rotate(-45)"/><rect class="cls-4" x="0.43" y="5.24" width="2.07" height="2.07"/><rect class="cls-4" x="0.43" y="17.75" width="2.07" height="2.07"/><rect class="cls-4" x="0.43" y="30.26" width="2.07" height="2.07"/><rect class="cls-4" x="0.43" y="42.77" width="2.07" height="2.07"/><rect class="cls-4" x="0.43" y="55.29" width="2.07" height="2.07"/><rect class="cls-4" x="0.43" y="67.8" width="2.07" height="2.07"/><rect class="cls-4" x="0.43" y="80.31" width="2.07" height="2.07"/><rect class="cls-4" x="0.43" y="92.83" width="2.07" height="2.07"/><rect class="cls-4" x="0.43" y="105.34" width="2.07" height="2.07"/><rect class="cls-4" x="0.43" y="117.85" width="2.07" height="2.07"/><rect class="cls-4" x="0.43" y="130.37" width="2.07" height="2.07"/><rect class="cls-4" x="11.76" y="5.24" width="2.07" height="2.07"/><rect class="cls-4" x="11.76" y="17.75" width="2.07" height="2.07"/><rect class="cls-4" x="11.76" y="30.26" width="2.07" height="2.07"/><rect class="cls-4" x="11.76" y="42.77" width="2.07" height="2.07"/><rect class="cls-4" x="11.76" y="55.29" width="2.07" height="2.07"/><rect class="cls-4" x="11.76" y="67.8" width="2.07" height="2.07"/><rect class="cls-4" x="11.76" y="80.31" width="2.07" height="2.07"/><rect class="cls-4" x="11.76" y="92.83" width="2.07" height="2.07"/><rect class="cls-4" x="11.76" y="105.34" width="2.07" height="2.07"/><rect class="cls-4" x="11.76" y="117.85" width="2.07" height="2.07"/><rect class="cls-4" x="11.76" y="130.37" width="2.07" height="2.07"/><rect class="cls-4" x="23.09" y="5.24" width="2.07" height="2.07"/><rect class="cls-4" x="23.09" y="17.75" width="2.07" height="2.07"/><rect class="cls-4" x="23.09" y="30.26" width="2.07" height="2.07"/><rect class="cls-4" x="23.09" y="42.77" width="2.07" height="2.07"/><rect class="cls-4" x="23.09" y="55.29" width="2.07" height="2.07"/><rect class="cls-4" x="23.09" y="67.8" width="2.07" height="2.07"/><rect class="cls-4" x="23.09" y="80.31" width="2.07" height="2.07"/><rect class="cls-4" x="23.09" y="92.83" width="2.07" height="2.07"/><rect class="cls-4" x="23.09" y="105.34" width="2.07" height="2.07"/><rect class="cls-4" x="23.09" y="117.85" width="2.07" height="2.07"/><rect class="cls-4" x="23.09" y="130.37" width="2.07" height="2.07"/><rect class="cls-4" x="34.42" y="5.24" width="2.07" height="2.07"/><rect class="cls-4" x="34.42" y="17.75" width="2.07" height="2.07"/><rect class="cls-4" x="34.42" y="30.26" width="2.07" height="2.07"/><rect class="cls-4" x="34.42" y="42.77" width="2.07" height="2.07"/><rect class="cls-4" x="34.42" y="55.29" width="2.07" height="2.07"/><rect class="cls-4" x="34.42" y="67.8" width="2.07" height="2.07"/><rect class="cls-4" x="34.42" y="80.31" width="2.07" height="2.07"/><rect class="cls-4" x="34.42" y="92.83" width="2.07" height="2.07"/><rect class="cls-4" x="34.42" y="105.34" width="2.07" height="2.07"/><rect class="cls-4" x="34.42" y="117.85" width="2.07" height="2.07"/><rect class="cls-4" x="34.42" y="130.37" width="2.07" height="2.07"/><rect class="cls-4" x="45.75" y="5.24" width="2.07" height="2.07"/><rect class="cls-4" x="45.75" y="17.75" width="2.07" height="2.07"/><rect class="cls-4" x="45.75" y="30.26" width="2.07" height="2.07"/><rect class="cls-4" x="45.75" y="42.77" width="2.07" height="2.07"/><rect class="cls-4" x="45.75" y="55.29" width="2.07" height="2.07"/><rect class="cls-4" x="45.75" y="67.8" width="2.07" height="2.07"/><rect class="cls-4" x="45.75" y="80.31" width="2.07" height="2.07"/><rect class="cls-4" x="45.75" y="92.83" width="2.07" height="2.07"/><rect class="cls-4" x="45.75" y="105.34" width="2.07" height="2.07"/><rect class="cls-4" x="45.75" y="117.85" width="2.07" height="2.07"/><rect class="cls-4" x="45.75" y="130.37" width="2.07" height="2.07"/><rect class="cls-4" x="57.07" y="5.24" width="2.07" height="2.07"/><rect class="cls-4" x="57.07" y="17.75" width="2.07" height="2.07"/><rect class="cls-4" x="57.07" y="30.26" width="2.07" height="2.07"/><rect class="cls-4" x="57.07" y="42.77" width="2.07" height="2.07"/><rect class="cls-4" x="57.07" y="55.29" width="2.07" height="2.07"/><rect class="cls-4" x="57.07" y="67.8" width="2.07" height="2.07"/><rect class="cls-4" x="57.07" y="80.31" width="2.07" height="2.07"/><rect class="cls-4" x="57.07" y="92.83" width="2.07" height="2.07"/><rect class="cls-4" x="57.07" y="105.34" width="2.07" height="2.07"/><rect class="cls-4" x="57.07" y="117.85" width="2.07" height="2.07"/><rect class="cls-4" x="57.07" y="130.37" width="2.07" height="2.07"/><rect class="cls-4" x="68.4" y="5.24" width="2.07" height="2.07"/><rect class="cls-4" x="68.4" y="17.75" width="2.07" height="2.07"/><rect class="cls-4" x="68.4" y="30.26" width="2.07" height="2.07"/><rect class="cls-4" x="68.4" y="42.77" width="2.07" height="2.07"/><rect class="cls-4" x="68.4" y="55.29" width="2.07" height="2.07"/><rect class="cls-4" x="68.4" y="67.8" width="2.07" height="2.07"/><rect class="cls-4" x="68.4" y="80.31" width="2.07" height="2.07"/><rect class="cls-4" x="68.4" y="92.83" width="2.07" height="2.07"/><rect class="cls-4" x="68.4" y="105.34" width="2.07" height="2.07"/><rect class="cls-4" x="68.4" y="117.85" width="2.07" height="2.07"/><rect class="cls-4" x="68.4" y="130.37" width="2.07" height="2.07"/><rect class="cls-4" x="79.73" y="5.24" width="2.07" height="2.07"/><rect class="cls-4" x="79.73" y="17.75" width="2.07" height="2.07"/><rect class="cls-4" x="79.73" y="30.26" width="2.07" height="2.07"/><rect class="cls-4" x="79.73" y="42.77" width="2.07" height="2.07"/><rect class="cls-4" x="79.73" y="55.29" width="2.07" height="2.07"/><rect class="cls-4" x="79.73" y="67.8" width="2.07" height="2.07"/><rect class="cls-4" x="79.73" y="80.31" width="2.07" height="2.07"/><rect class="cls-4" x="79.73" y="92.83" width="2.07" height="2.07"/><rect class="cls-4" x="79.73" y="105.34" width="2.07" height="2.07"/><rect class="cls-4" x="79.73" y="117.85" width="2.07" height="2.07"/><rect class="cls-4" x="79.73" y="130.37" width="2.07" height="2.07"/><rect class="cls-4" x="91.06" y="5.24" width="2.07" height="2.07"/><rect class="cls-4" x="91.06" y="17.75" width="2.07" height="2.07"/><rect class="cls-4" x="91.06" y="30.26" width="2.07" height="2.07"/><rect class="cls-4" x="91.06" y="42.77" width="2.07" height="2.07"/><rect class="cls-4" x="91.06" y="55.29" width="2.07" height="2.07"/><rect class="cls-4" x="91.06" y="67.8" width="2.07" height="2.07"/><rect class="cls-4" x="91.06" y="80.31" width="2.07" height="2.07"/><rect class="cls-4" x="91.06" y="92.83" width="2.07" height="2.07"/><rect class="cls-4" x="91.06" y="105.34" width="2.07" height="2.07"/><rect class="cls-4" x="91.06" y="117.85" width="2.07" height="2.07"/><rect class="cls-4" x="91.06" y="130.37" width="2.07" height="2.07"/><rect class="cls-4" x="283.68" y="377.93" width="2.44" height="2.44"/><rect class="cls-4" x="283.68" y="392.66" width="2.44" height="2.44"/><rect class="cls-4" x="283.68" y="407.4" width="2.44" height="2.44"/><rect class="cls-4" x="297.02" y="377.93" width="2.44" height="2.44"/><rect class="cls-4" x="297.02" y="392.66" width="2.44" height="2.44"/><rect class="cls-4" x="297.02" y="407.4" width="2.44" height="2.44"/><rect class="cls-4" x="310.36" y="377.93" width="2.44" height="2.44"/><rect class="cls-4" x="310.36" y="392.66" width="2.44" height="2.44"/><rect class="cls-4" x="310.36" y="407.4" width="2.44" height="2.44"/><rect class="cls-4" x="323.7" y="377.93" width="2.44" height="2.44"/><rect class="cls-4" x="323.7" y="392.66" width="2.44" height="2.44"/><rect class="cls-4" x="323.7" y="407.4" width="2.44" height="2.44"/><rect class="cls-4" x="337.03" y="377.93" width="2.44" height="2.44"/><rect class="cls-4" x="337.03" y="392.66" width="2.44" height="2.44"/><rect class="cls-4" x="337.03" y="407.4" width="2.44" height="2.44"/><rect class="cls-4" x="350.37" y="377.93" width="2.44" height="2.44"/><rect class="cls-4" x="350.37" y="392.66" width="2.44" height="2.44"/><rect class="cls-4" x="350.37" y="407.4" width="2.44" height="2.44"/><rect class="cls-4" x="363.71" y="377.93" width="2.44" height="2.44"/><rect class="cls-4" x="363.71" y="392.66" width="2.44" height="2.44"/><rect class="cls-4" x="363.71" y="407.4" width="2.44" height="2.44"/><rect class="cls-4" x="377.04" y="377.93" width="2.44" height="2.44"/><rect class="cls-4" x="377.04" y="392.66" width="2.44" height="2.44"/><rect class="cls-4" x="377.04" y="407.4" width="2.44" height="2.44"/><rect class="cls-4" x="390.38" y="377.93" width="2.44" height="2.44"/><rect class="cls-4" x="390.38" y="392.66" width="2.44" height="2.44"/><rect class="cls-4" x="390.38" y="407.4" width="2.44" height="2.44"/><rect class="cls-4" x="403.72" y="377.93" width="2.44" height="2.44"/><rect class="cls-4" x="403.72" y="392.66" width="2.44" height="2.44"/><rect class="cls-4" x="403.72" y="407.4" width="2.44" height="2.44"/><rect class="cls-4" x="417.05" y="377.93" width="2.44" height="2.44"/><rect class="cls-4" x="417.05" y="392.66" width="2.44" height="2.44"/><rect class="cls-4" x="417.05" y="407.4" width="2.44" height="2.44"/><path class="cls-4" d="M133.87,208.22a2.59,2.59,0,1,1-2.59-2.59A2.59,2.59,0,0,1,133.87,208.22Z"/><path class="cls-4" d="M167.64,208.22a2.59,2.59,0,1,1-2.59-2.59A2.59,2.59,0,0,1,167.64,208.22Z"/><path class="cls-4" d="M201.41,208.22a2.59,2.59,0,1,1-2.58-2.59A2.58,2.58,0,0,1,201.41,208.22Z"/><path class="cls-4" d="M235.19,208.22a2.59,2.59,0,1,1-2.59-2.59A2.59,2.59,0,0,1,235.19,208.22Z"/><path class="cls-4" d="M133.87,241.7a2.59,2.59,0,1,1-2.59-2.59A2.59,2.59,0,0,1,133.87,241.7Z"/><path class="cls-4" d="M167.64,241.7a2.59,2.59,0,1,1-2.59-2.59A2.59,2.59,0,0,1,167.64,241.7Z"/><path class="cls-4" d="M201.41,241.7a2.59,2.59,0,1,1-2.58-2.59A2.58,2.58,0,0,1,201.41,241.7Z"/><path class="cls-4" d="M235.19,241.7a2.59,2.59,0,1,1-2.59-2.59A2.59,2.59,0,0,1,235.19,241.7Z"/><path class="cls-4" d="M133.87,275.18a2.59,2.59,0,1,1-2.59-2.59A2.59,2.59,0,0,1,133.87,275.18Z"/><path class="cls-4" d="M167.64,275.18a2.59,2.59,0,1,1-2.59-2.59A2.59,2.59,0,0,1,167.64,275.18Z"/><path class="cls-4" d="M201.41,275.18a2.59,2.59,0,1,1-2.58-2.59A2.58,2.58,0,0,1,201.41,275.18Z"/><path class="cls-4" d="M235.19,275.18a2.59,2.59,0,1,1-2.59-2.59A2.59,2.59,0,0,1,235.19,275.18Z"/><path class="cls-4" d="M133.87,308.66a2.59,2.59,0,1,1-2.59-2.59A2.59,2.59,0,0,1,133.87,308.66Z"/><path class="cls-4" d="M167.64,308.66a2.59,2.59,0,1,1-2.59-2.59A2.59,2.59,0,0,1,167.64,308.66Z"/><path class="cls-4" d="M201.41,308.66a2.59,2.59,0,1,1-2.58-2.59A2.58,2.58,0,0,1,201.41,308.66Z"/><path class="cls-4" d="M235.19,308.66a2.59,2.59,0,1,1-2.59-2.59A2.59,2.59,0,0,1,235.19,308.66Z"/><circle class="cls-4" cx="700.74" cy="95.26" r="2.22"/><circle class="cls-4" cx="729.73" cy="95.26" r="2.22"/><circle class="cls-4" cx="700.74" cy="123.99" r="2.22"/><circle class="cls-4" cx="729.73" cy="123.99" r="2.22"/><path class="cls-4" d="M703,152.72a2.23,2.23,0,1,1-2.23-2.22A2.23,2.23,0,0,1,703,152.72Z"/><path class="cls-4" d="M732,152.72a2.23,2.23,0,1,1-2.22-2.22A2.23,2.23,0,0,1,732,152.72Z"/><path class="cls-4" d="M703,181.46a2.23,2.23,0,1,1-2.23-2.23A2.23,2.23,0,0,1,703,181.46Z"/><path class="cls-4" d="M732,181.46a2.23,2.23,0,1,1-2.22-2.23A2.23,2.23,0,0,1,732,181.46Z"/><circle class="cls-4" cx="700.74" cy="210.19" r="2.22"/><circle class="cls-4" cx="729.73" cy="210.19" r="2.22"/><circle class="cls-4" cx="700.74" cy="238.92" r="2.22"/><circle class="cls-4" cx="729.73" cy="238.92" r="2.22"/><path class="cls-4" d="M703,267.65a2.23,2.23,0,1,1-2.23-2.23A2.23,2.23,0,0,1,703,267.65Z"/><path class="cls-4" d="M732,267.65a2.23,2.23,0,1,1-2.22-2.23A2.23,2.23,0,0,1,732,267.65Z"/><rect class="cls-5" x="1" y="-38.5" width="750" height="500"/><rect class="cls-5" width="752" height="423"/></g></svg>